<svg width="34" height="34" viewBox="0 0 34 34" fill="none" xmlns="http://www.w3.org/2000/svg">
<path d="M7.4375 15.9375H28.6875C28.9693 15.9375 29.2395 16.0494 29.4388 16.2487C29.6381 16.448 29.75 16.7182 29.75 17C29.75 17.2818 29.6381 17.552 29.4388 17.7513C29.2395 17.9506 28.9693 18.0625 28.6875 18.0625H7.4375C7.15571 18.0625 6.88546 17.9506 6.6862 17.7513C6.48694 17.552 6.375 17.2818 6.375 17C6.375 16.7182 6.48694 16.448 6.6862 16.2487C6.88546 16.0494 7.15571 15.9375 7.4375 15.9375Z" fill="black"/>
<path d="M7.87732 16.9999L16.6897 25.8101C16.8892 26.0096 17.0013 26.2802 17.0013 26.5624C17.0013 26.8445 16.8892 27.1151 16.6897 27.3146C16.4902 27.5141 16.2196 27.6262 15.9374 27.6262C15.6553 27.6262 15.3847 27.5141 15.1852 27.3146L5.6227 17.7521C5.52375 17.6534 5.44525 17.5362 5.39168 17.4071C5.33812 17.278 5.31055 17.1396 5.31055 16.9999C5.31055 16.8601 5.33812 16.7217 5.39168 16.5927C5.44525 16.4636 5.52375 16.3463 5.6227 16.2476L15.1852 6.68513C15.3847 6.48562 15.6553 6.37354 15.9374 6.37354C16.2196 6.37354 16.4902 6.48562 16.6897 6.68513C16.8892 6.88464 17.0013 7.15523 17.0013 7.43738C17.0013 7.71953 16.8892 7.99012 16.6897 8.18963L7.87732 16.9999Z" fill="black"/>
</svg>
