<svg width="26" height="14" viewBox="0 0 26 14" fill="none" xmlns="http://www.w3.org/2000/svg">
<path d="M17.0625 7.22718C17.0625 8.02328 16.6345 8.78678 15.8726 9.34971C15.1108 9.91264 14.0774 10.2289 13 10.2289C11.9226 10.2289 10.8892 9.91264 10.1274 9.34971C9.36551 8.78678 8.9375 8.02328 8.9375 7.22718C8.9375 6.43107 9.36551 5.66758 10.1274 5.10465C10.8892 4.54172 11.9226 4.22546 13 4.22546C14.0774 4.22546 15.1108 4.54172 15.8726 5.10465C16.6345 5.66758 17.0625 6.43107 17.0625 7.22718Z" fill="#B4B3CA"/>
<path fill-rule="evenodd" clip-rule="evenodd" d="M0 7.22706C0 7.22706 4.875 0.623291 13 0.623291C21.125 0.623291 26 7.22706 26 7.22706C26 7.22706 21.125 13.8308 13 13.8308C4.875 13.8308 0 7.22706 0 7.22706ZM13 11.4295C14.5084 11.4295 15.9551 10.9867 17.0217 10.1986C18.0883 9.41051 18.6875 8.34161 18.6875 7.22706C18.6875 6.11252 18.0883 5.04362 17.0217 4.25552C15.9551 3.46742 14.5084 3.02466 13 3.02466C11.4916 3.02466 10.0449 3.46742 8.97833 4.25552C7.91172 5.04362 7.3125 6.11252 7.3125 7.22706C7.3125 8.34161 7.91172 9.41051 8.97833 10.1986C10.0449 10.9867 11.4916 11.4295 13 11.4295Z" fill="#B4B3CA"/>
</svg>
