<svg width="21" height="14" viewBox="0 0 21 14" fill="none" xmlns="http://www.w3.org/2000/svg">
<path d="M13.7812 7.12303C13.7812 7.90663 13.4355 8.65813 12.8202 9.21221C12.2048 9.7663 11.3702 10.0776 10.5 10.0776C9.62976 10.0776 8.79516 9.7663 8.17981 9.21221C7.56445 8.65813 7.21875 7.90663 7.21875 7.12303C7.21875 6.33944 7.56445 5.58794 8.17981 5.03385C8.79516 4.47977 9.62976 4.16849 10.5 4.16849C11.3702 4.16849 12.2048 4.47977 12.8202 5.03385C13.4355 5.58794 13.7812 6.33944 13.7812 7.12303Z" fill="#B4B3CA"/>
<path fill-rule="evenodd" clip-rule="evenodd" d="M0 7.12305C0 7.12305 3.9375 0.623047 10.5 0.623047C17.0625 0.623047 21 7.12305 21 7.12305C21 7.12305 17.0625 13.623 10.5 13.623C3.9375 13.623 0 7.12305 0 7.12305ZM10.5 11.2594C11.7183 11.2594 12.8868 10.8236 13.7483 10.0479C14.6098 9.27218 15.0938 8.22008 15.0938 7.12305C15.0938 6.02601 14.6098 4.97391 13.7483 4.1982C12.8868 3.42248 11.7183 2.98668 10.5 2.98668C9.28166 2.98668 8.11322 3.42248 7.25173 4.1982C6.39023 4.97391 5.90625 6.02601 5.90625 7.12305C5.90625 8.22008 6.39023 9.27218 7.25173 10.0479C8.11322 10.8236 9.28166 11.2594 10.5 11.2594Z" fill="#B4B3CA"/>
</svg>
